<?xml version="1.0" encoding="UTF-8" standalone="no"?>
<svg
   xmlns:dc="http://purl.org/dc/elements/1.1/"
   xmlns:cc="http://creativecommons.org/ns#"
   xmlns:rdf="http://www.w3.org/1999/02/22-rdf-syntax-ns#"
   xmlns:svg="http://www.w3.org/2000/svg"
   xmlns="http://www.w3.org/2000/svg"
   width="402"
   height="252"
   viewBox="0 0 201 126"
   version="1.1"
   id="svg8">
  <defs
     id="defs2" />
  <metadata
     id="metadata5">
    <rdf:RDF>
      <cc:Work
         rdf:about="">
        <dc:format>image/svg+xml</dc:format>
        <dc:type
           rdf:resource="http://purl.org/dc/dcmitype/StillImage" />
        <dc:title></dc:title>
      </cc:Work>
    </rdf:RDF>
  </metadata>
  <g
     id="layer1">
    <g
       id="g974">
      <g
         id="g993"
         transform="translate(-5.5841553,-49.205265)">
        <path
           id="path24"
           style="fill:#000000;stroke-width:0.0647364"
           d="m 77.810008,175.07609 c -0.02568,-0.48463 -3.610083,-2.01105 -4.534281,-1.94069 -0.160715,-0.57014 -2.482534,-1.95769 -4.564376,-2.10955 -2.429723,-1.50203 -3.880694,-0.0959 -4.897993,-1.81344 -1.999545,-1.52084 -4.215672,0.10871 -3.69275,-1.86604 -4.503111,-2.17518 -0.762439,-4.22109 1.910991,-7.19796 5.033894,-5.29504 9.483114,-10.9064 13.704112,-16.88856 1.286713,-2.52176 3.603221,-5.3683 4.189281,-7.78248 -2.226658,1.7738 -5.805503,4.77489 -7.015943,6.99874 -5.410177,3.85476 -8.873673,9.8149 -14.797853,13.13137 -2.258316,1.8234 -4.77504,3.87957 -7.295816,4.93461 -3.046273,-2.84423 -7.524937,-3.03366 -10.233472,-6.29335 -0.410195,0.36207 -3.829162,-1.31471 -2.296147,-1.73084 9.105098,-8.11834 19.412462,-15.73368 24.716173,-27.06487 0.892778,-3.52758 4.30476,-7.01628 3.347584,-10.61113 -1.533593,-2.65342 -2.127495,-3.70316 -3.983945,-0.60142 -2.551326,2.79051 -6.077519,4.60681 -9.224228,6.93341 -6.577529,3.97214 -14.325542,6.1856 -21.963417,6.08324 0.899872,-2.28519 4.379396,-2.08122 5.940907,-4.00755 7.336282,-4.00135 15.54401,-8.23079 19.605378,-15.91498 -3.830528,1.68706 -8.119354,3.11554 -12.160256,3.18735 -5.206599,2.96469 -10.838878,5.79392 -16.797983,7.25373 -2.8316,1.17673 -4.644688,0.95501 -3.592875,-0.1565 -3.390472,-0.071 -8.986204,-1.60382 -11.166027,-1.45924 -2.440739,-0.5073 -5.1941729,-2.81105 -0.409101,-2.4911 6.1343,-2.03878 12.896452,-3.02759 18.497835,-6.12504 -1.835584,-0.2553 -5.06362,-1.12057 -5.701572,-1.02856 -2.53443,-0.32915 -3.884706,-1.66429 -6.811131,-1.35592 -2.669289,-1.31069 -5.038109,-2.48826 -7.013322,-4.71269 C 2.6044819,89.677141 6.627854,81.999011 7.4286495,75.134125 9.1000331,71.854472 8.3836568,68.046384 9.2253869,64.681468 c 0.5383265,-4.970502 9.6387721,-6.066544 9.6705521,-0.50399 4.220265,-1.784615 7.466342,3.680477 2.784859,5.656385 -2.016961,0.537824 -4.299393,0.191284 -5.339288,3.01831 -1.335674,2.993901 -0.704464,5.172104 -2.010688,8.044406 -1.429478,5.463173 3.604774,9.973201 8.806504,10.144184 4.844117,1.038388 11.577819,-1.100361 15.125537,3.214432 0.589593,1.968872 3.020214,3.45809 5.72377,3.818632 3.070443,0.702165 6.015144,-1.832679 8.351116,-3.54708 1.420978,-8.839046 2.351485,-18.106415 1.358213,-27.144785 -0.582824,-5.637781 -0.472743,-12.425587 4.981669,-15.831113 4.782979,-2.342737 10.472174,-2.409351 15.699175,-2.280496 2.945799,2.131268 2.674931,6.005732 3.19947,9.164117 6.878154,-0.418132 15.139431,-0.266191 19.90586,5.627637 2.512099,0.472053 5.851444,-3.161532 9.019514,-1.669058 4.29089,0.707173 7.1685,3.740373 10.0589,6.736742 5.19168,-3.144374 11.38385,-3.397286 17.21133,-4.502764 10.39388,-1.838213 20.96538,1.842291 28.97686,8.335871 5.62318,2.240101 9.4883,7.11893 12.06787,12.399584 1.71322,3.335814 3.28544,5.595209 3.94999,9.392171 1.21423,5.604317 4.61143,10.998777 3.34357,16.871747 -1.32607,5.13752 -0.55078,7.48755 3.42064,10.19883 1.23395,4.60878 -1.53966,10.84373 2.7492,14.34761 4.4926,1.74263 9.24121,-1.12141 12.98486,-3.35613 2.13003,-0.97316 2.90169,-4.63338 5.32343,-4.36521 -1.55869,3.23703 -4.6016,6.00815 -8.14939,6.96791 -3.72121,1.75425 -9.12431,4.01453 -12.32957,0.13072 -3.7606,-4.32137 1.17776,-10.94041 -2.81181,-14.87167 -2.75862,-2.75713 -3.23119,2.19364 -4.42177,3.80162 -2.4672,5.35404 -2.82238,11.55506 -4.67343,16.95906 -0.14378,1.35351 -2.12156,4.67727 -2.34054,6.92868 -1.48467,6.07712 -1.82707,12.36152 -3.65302,18.32035 -1.09282,1.81664 -5.90227,0.78677 -7.13126,1.48859 -2.75278,0.87493 -6.47936,1.07791 -9.02177,0.84712 -3.16143,0.25725 -6.09528,1.95267 -9.27708,1.55105 0.22896,-5.4363 2.79156,-11.25791 4.02247,-16.1757 0.59145,-1.87488 1.85226,-5.69646 2.04835,-8.53688 -0.0708,-2.46141 -2.65285,4.32221 -2.97713,5.72072 -1.13257,4.68885 -4.55225,9.0123 -4.55225,9.0123 0.80698,-0.73138 -4.69762,-0.43424 -5.94183,0.19314 -3.34418,-1.45029 -9.63062,0.25295 -13.96518,0.33568 -2.47254,-0.71662 3.25519,-5.62033 3.03616,-8.24875 1.84519,-5.06457 4.73516,-9.73889 5.53423,-15.14833 -4.6827,0.9721 -9.38719,2.1233 -14.27378,1.99871 -5.06925,0.77237 -10.63634,0.42337 -15.37644,1.67319 -3.377489,8.6803 -9.032808,16.16492 -14.07799,23.90013 -2.42508,3.40037 -5.363151,5.74607 -6.920694,9.35179 -0.355739,0.23018 -1.043877,0.82165 -1.524568,0.42516 z m 0.882099,-1.63419 c -0.674529,0.23195 0.08493,0.29444 0,0 z m -0.184072,-0.86325 c 7.430669,-6.59021 11.843652,-15.56014 17.326872,-23.64941 1.569544,-2.75661 3.403195,-6.04456 3.000642,-9.11972 3.643691,-1.46378 9.454111,0.54317 14.868561,-0.68531 6.73268,-1.51291 13.63128,-2.35823 20.15778,-4.68045 5.62308,-1.07434 10.73791,-4.05332 15.8195,-6.23661 1.33861,10.32902 0.56034,21.48482 -2.63484,31.5857 -0.58171,3.0114 -6.25037,11.01367 -0.30874,9.57778 4.67418,0.2691 -1.66242,-7.3544 4.09197,-6.36497 5.69678,-1.84858 -0.0517,8.09304 6.18105,4.35197 -0.65848,-2.30441 3.36129,-6.55423 4.71726,-3.09581 -1.06463,4.59114 6.78449,3.13592 5.99779,-0.72722 1.43105,-7.8409 3.03482,-15.67218 4.61817,-23.48627 3.03777,-6.6719 4.28569,-14.0062 7.33006,-20.66153 2.07379,-5.13966 0.90649,-11.13109 0.68457,-16.51425 -3.19482,-7.504901 -5.71728,-15.333128 -9.9578,-22.307488 -0.61756,-0.51619 -2.44933,-2.528662 -3.59554,-3.635583 -2.06711,-0.957023 -4.67269,-4.015739 -6.3334,-4.362808 -3.43624,-3.256259 -8.20147,-4.994586 -12.61479,-6.583879 -2.76823,-0.703604 -3.42195,-0.431679 -5.79121,-0.862074 -0.71668,-0.616133 -2.14117,-0.405048 -2.92332,-0.478822 -0.48734,0.008 -3.00151,-0.0024 -4.88533,0.473582 -0.9747,0.143145 -2.18567,-0.06459 -3.86687,0.621909 -1.6198,-0.299436 -3.15426,0.840714 -4.5078,0.687736 -1.25248,0.428019 -1.99988,0.372006 -3.69869,0.659272 0.38514,0.536112 -1.41229,0.55012 -2.56129,1.130991 -1.91466,-0.700048 -3.82763,3.710591 -2.76531,2.01472 1.36919,-0.05134 2.71685,4.558061 3.09299,6.506005 0.34212,1.985588 1.09829,6.320242 0.66914,9.16016 -0.43732,3.872112 -1.44237,7.998345 -3.26885,11.08749 -0.12074,-0.400138 -1.55717,2.7777 -2.49379,3.292809 -0.80488,1.56163 -2.92056,2.8233 -3.63854,3.84361 -3.06819,2.31733 -7.76336,5.29497 -11.49337,7.92388 -4.302812,2.24397 -8.128378,5.78088 -13.129755,6.33727 0.08598,0.46513 -0.915647,-0.47008 -2.347526,-0.69921 -1.885119,-0.82191 -3.089705,-2.95917 -5.340749,-1.56985 -3.317855,1.20958 -9.817457,-1.37109 -10.907508,2.54114 -1.823639,6.30011 -6.215058,11.43642 -9.80816,16.74393 -5.042207,5.58336 -11.129908,10.03574 -16.443061,15.34945 -4.301356,3.75555 1.86939,2.10731 3.105411,-1.08463 5.641153,1.25959 -3.41307,5.63333 1.097144,6.65169 0.889316,-2.37576 7.089039,-5.21637 5.598126,-0.69989 -3.983279,4.16036 1.237318,3.17729 3.146603,0.30206 8.000746,-5.21763 14.180814,-12.24099 21.346782,-18.48163 1.175539,-1.02625 5.139515,-5.19442 5.246682,-2.57777 -1.224068,3.31591 -3.856052,6.5222 -5.651291,9.89175 -1.697885,2.09011 -3.613073,5.11792 -4.824269,6.62262 -3.473701,4.39424 -6.840642,8.65231 -10.862561,12.58737 -0.312227,2.83062 3.776438,2.87883 4.260845,-0.72175 2.551334,-2.27796 6.79494,2.07476 3.366336,3.88694 -1.599575,3.03005 4.629198,2.72575 4.49673,-0.61048 3.01248,-1.89047 5.781854,2.4106 2.322966,4.87186 -0.07036,0.75929 3.653905,2.99937 4.11038,1.19372 z M 118.13808,69.012102 c 0.28208,-0.392175 0.16021,0.08275 0,0 z m 6.14704,-2.106295 c 0.68801,-0.284615 0.16875,0.167609 0,0 z m 3.01316,-0.624383 c 0.15987,-0.230555 0.0783,0.236656 0,0 z m 1.57391,-0.367904 c 0.28383,-0.0927 0.028,0.124578 0,0 z m 11.52308,-1.100519 c 0.28383,-0.0927 0.028,0.124578 0,0 z M 73.369905,171.09277 c 2.405671,-1.67036 1.621371,-4.38288 -1.098825,-3.26556 -0.864955,1.85133 -1.686774,3.04483 1.098825,3.26556 z m -4.199815,-1.26955 c -0.314949,-0.31266 -0.146724,0.24297 0,0 z m 80.92254,-1.25888 c 7.04935,-0.84292 -1.05827,-7.95339 -0.42731,-1.51864 l 0.17607,1.47136 0.25064,0.0479 z m -86.537004,-0.70283 c -1.338111,-0.45951 0.358956,0.49037 0,0 z m 2.45075,0.008 c 3.294287,-3.23051 -1.358358,-4.79625 -2.505295,-1.12802 0.55942,0.32208 2.105065,1.52992 2.505295,1.12802 z m 93.925734,-0.69132 c 3.06789,0.11577 -0.27922,-5.34426 -1.26894,-1.33207 -0.71389,0.97173 -0.29031,2.00606 1.26894,1.33207 z m -86.280142,-0.37757 c -0.149094,-0.43513 -0.607899,0.52263 0,0 z m 78.861152,-3.62679 c 0.401,-0.70735 -0.47936,0.34194 0,0 z m -28.64587,-3.24666 c 2.35837,-0.65792 2.46567,-0.32074 1.55872,-2.47102 -0.98253,-4.81342 5.6277,-2.90007 3.6192,1.23491 4.30797,4.80592 2.13462,-8.55916 6.79229,-3.58233 -0.78209,5.00022 3.99093,5.10474 6.38198,2.8804 2.42793,-5.96161 3.9136,-12.25968 6.42504,-18.16553 0.56524,-2.3769 2.01382,-12.4682 -2.82761,-8.09342 -4.58883,2.46111 -10.12506,3.53625 -14.60542,5.73095 -0.53386,1.68338 -1.8744,5.57099 -2.3863,8.28615 -1.74351,4.80339 -3.53565,9.71676 -5.9784,14.15917 l 1.0206,0.0202 z m -1.71551,-0.23063 c -0.0784,-0.23653 -0.15974,0.23053 0,0 z m 5.84078,-0.29132 c 0.78787,-5.16378 -2.60226,-4.14803 -0.67852,0.10067 l 0.39328,0.11287 0.2846,-0.21369 z m -0.56477,-0.0324 c 0.15986,-0.23042 0.0783,0.23652 0,0 z m 7.20665,-0.0729 c 2.87783,-3.61457 -2.92826,-4.9886 -1.0886,-0.21854 l 0.22304,0.23867 0.86602,-0.0202 z m -8.63903,-0.99324 c -0.17907,-0.28509 -0.22775,0.33425 0,0 z m -77.048133,-0.95499 c 1.962865,-1.56229 1.495658,-4.80274 -0.559307,-1.5914 -0.757155,0.92937 -0.66095,1.79065 0.559307,1.5914 z m -5.517472,-2.56419 c 1.962568,-0.85306 2.958603,-5.39408 0.388093,-2.42618 0.09409,0.55132 -2.240063,2.74385 -0.388093,2.42618 z m -1.31521,-0.9675 c 0.943251,-1.7476 -1.218182,1.03626 0,0 z m -4.184912,-1.15433 c -0.259448,-0.11478 -0.252738,0.21105 0,0 z m 5.567333,-1.08129 c -0.369518,0.0981 -0.201597,0.42804 0,0 z m 22.139858,-3.16191 c -0.877868,0.51429 -0.998533,0.95543 0,0 z m 83.047336,-5.36382 c -0.14361,-0.48792 -0.26342,0.6445 0,0 z m 0.26845,-1.33946 c -0.0826,-0.36212 -0.20863,0.32188 0,0 z m -28.48403,-2.58344 c -0.47071,-0.65062 -0.89178,0.73903 0,0 z m 1.98449,-0.38428 c -0.18336,-0.41362 -0.57788,0.41355 0,0 z m 26.74672,-5.2115 c -0.22552,-2.47602 0.0299,2.41451 0,0 z m 52.64248,-0.9033 c -0.0782,-0.23659 -0.15974,0.23051 0,0 z M 35.858078,126.25956 c 9.296223,-1.92765 18.154675,-6.25267 24.837631,-13.06364 1.961592,-3.60661 5.85152,-5.93312 7.695933,-9.745 0.518303,-1.57048 3.545771,-4.728566 1.809117,-5.9667 -2.666462,-0.735642 -7.363677,-2.106629 -8.0335,1.219108 -3.325708,6.332892 -5.973576,13.696642 -12.332995,17.684022 -4.939733,3.73376 -10.216573,7.13897 -15.651407,9.9156 l 1.675258,-0.0435 z M 63.228104,97.63482 c 0.136347,-0.658589 1.149279,0.359735 0,0 z m -14.519193,25.22519 c 1.52941,-0.72163 -0.440415,-0.21891 0,0 z m 1.117656,-0.68721 c -0.4871,0.0241 -0.430836,0.35889 0,0 z m 0.494522,-0.20901 c -0.103374,-0.33609 -0.522207,0.26559 0,0 z m 2.17425,-1.102 c -0.655864,-0.32111 -0.151052,0.2729 0,0 z m 1.724585,-1.11431 c 0.98742,-0.74953 -1.206707,0.54603 0,0 z m 0.7354,-0.46577 c 3.191629,-2.01176 -1.548978,0.48204 0,0 z m 31.20525,-1.95837 c 8.959959,-2.20144 16.323666,-8.18969 23.885466,-13.22704 7.3971,-5.570308 10.11323,-15.784461 8.97671,-24.640945 -0.72008,-4.703061 -2.34049,-9.577683 -6.0531,-12.515864 -0.86603,-1.341108 -3.08743,-2.308636 -2.85939,-2.904947 -1.44382,-0.02516 -1.01335,-0.937456 -4.36958,-1.416593 -1.90006,-0.0017 -2.30545,0.466237 -3.15015,0.216874 -1.65799,0.621879 -3.679275,2.342781 -4.825353,2.892701 C 95.74658,63.318553 94.284659,62.040249 92.9602,61.039291 88.988993,59.522589 82.680209,58.19166 77.739405,59.48422 c -1.67479,0.463188 -2.401826,0.508598 -3.873792,1.319335 -0.227808,-0.838342 -1.61689,0.578678 -1.734014,0.377791 -0.95369,0.396864 -3.132839,1.0807 -4.682955,2.082446 -2.448406,1.46303 -3.401113,3.465997 -4.116564,5.510149 -3.295075,5.336205 3.588648,0.950758 4.245805,5.761542 0.384459,2.876443 -1.237374,7.77625 -4.336501,6.797322 -2.816877,1.741991 -3.223208,-4.749843 -3.301441,-1.542213 -1.04233,4.600958 -2.593365,9.094812 -5.396954,12.908652 0.581965,1.78577 -2.60056,3.459867 -4.026618,4.403807 -1.32621,0.3526 -4.26785,1.329155 -2.110689,1.867821 -2.113812,0.08273 -4.541069,2.221228 -5.19712,0.283057 -1.219725,-1.039 -4.38722,-1.804617 -4.657562,-2.445751 -0.550993,-1.499261 -1.791567,-3.833414 -3.910209,-4.178883 -3.1095,-0.517018 -6.557015,-0.719822 -8.612003,-0.797048 -1.308794,-0.128122 -1.865631,0.124981 -4.183358,-0.233772 -1.912132,-0.674463 -3.522949,-1.540642 -3.175109,-0.825657 -1.502161,-0.78927 -2.455066,-1.721428 -4.086708,-3.17386 -3.461399,-3.632155 0.0267,-9.038707 0.170148,-13.351692 0.505709,-4.463413 5.164472,-4.117696 7.51195,-6.800428 1.109121,-0.638032 0.308385,-1.513906 -0.876486,-2.136303 -1.668881,-0.923771 -2.234759,1.649468 -3.674897,2.512551 -1.577336,-1.183805 1.23355,-6.707147 -2.40242,-6.367375 -1.60842,-0.02229 -3.620374,0.03168 -4.281573,1.831802 -1.7178876,3.397672 -0.998163,7.591813 -2.3044812,11.231772 -3.5212549,10.8874 -0.645135,18.15206 6.3028262,26.269625 4.396284,2.34985 8.647155,5.21208 13.902437,4.91858 4.340383,-0.28811 6.775305,0.79621 9.787702,2.58329 6.255561,0.79236 13.56752,1.0158 19.011055,-2.62846 1.05604,-2.73124 4.088867,-6.239636 3.758829,-8.957796 0.350647,-2.132368 6.458827,-0.330039 9.108064,-0.132572 1.918047,0.454446 5.593427,5.108898 2.927658,4.688988 -0.779599,-0.97489 -2.386786,-3.998631 -1.939125,-1.714317 -1.882272,3.661417 -3.808269,7.424527 -6.070134,10.927217 0.77104,1.79089 0.920566,5.01876 3.908544,4.28675 5.307363,-1.02933 13.56084,3.09984 10.843108,-5.1623 1.663906,-6.06007 4.220247,-11.783693 6.674089,-17.523129 -0.585318,-3.048465 0.89607,-5.703867 3.543413,-7.392425 4.151978,-2.704327 7.726919,-7.137782 6.643811,-12.23518 1.554473,-1.097876 1.000895,5.436992 0.111567,5.536475 -0.01441,-0.06861 -0.860315,2.391064 -1.403472,2.474652 -1.358462,1.510884 -2.264715,2.915545 -4.525717,4.287767 -2.730579,1.737202 -3.877707,4.627079 -3.625487,7.979776 -0.744702,3.393369 -3.115434,5.906631 -3.71818,8.871164 -0.2076,2.0757 -2.035164,4.68376 -2.175522,6.66682 -0.270112,1.41399 -0.922096,3.37418 -0.276254,5.45368 0.495639,1.91406 2.5868,3.56107 4.645508,3.60545 z M 84.798817,99.325554 c 0.07486,-0.227771 0.172876,0.212147 0,0 z M 74.699934,83.017286 c -5.120125,-2.446503 -2.321462,-11.90806 3.501747,-10.541479 3.688321,0.182851 4.831543,4.342619 2.84243,7.051155 -1.305192,2.060335 -3.787663,3.908422 -6.344177,3.490324 z m 0.03205,-0.48753 c -0.890732,-0.409523 0.107984,0.559001 0,0 z m -0.592973,-0.259053 c -0.758095,-0.445777 0.377853,0.566526 0,0 z m 2.04986,-0.07146 c 2.335359,-0.254965 4.776443,-3.166163 4.725743,-4.625116 1.917064,-1.116956 -2.351886,-6.034955 -1.219868,-3.311464 -0.624994,-0.0031 -2.853845,-1.769192 -3.311691,-0.633634 -2.8072,0.723033 -0.805351,2.874045 -0.776795,5.412464 0.309759,0.770523 -0.37184,3.564637 0.582611,3.15775 z m 4.631315,-7.497771 c -0.147829,-0.446797 0.144864,-0.59991 0,0 z m -3.886743,-0.222705 c -0.301667,-0.59568 1.164698,0.309803 0,0 z m 0.845283,-1.369701 c -0.711322,-0.303567 -0.623755,0.157915 0,0 z M 60.004765,79.22489 c 0.186464,-0.12337 0.151084,0.222366 0,0 z M 10.25065,68.346242 c -0.189956,-0.331398 1.059942,-0.212532 0,0 z m 53.620734,-0.0018 c -0.34635,-0.878123 0.509934,0.291138 0,0 z M 10.84778,65.132353 c -0.19971,-1.381548 1.114794,-0.02983 0,0 z m 96.84439,-1.226358 c -0.10297,-0.348494 0.41782,0.02132 0,0 z m -0.1385,-0.539419 c -3.29307,-0.835063 2.12594,0.09161 0,0 z m -1.39183,-0.38671 c 0.15975,-0.230645 0.0782,0.236727 0,0 z M 15.158605,62.116192 c -0.88089,-0.470983 1.31808,0.195279 0,0 z m 58.020289,-1.207461 c 0.128052,-0.185031 0.631121,0.20758 0,0 z M 28.575229,116.71911 c 5.17532,-1.14673 9.810127,-3.91168 14.392184,-6.55137 -3.533616,-0.56994 -5.380238,-1.1973 -7.844489,-1.24507 2.237432,-2.48178 -4.828867,1.83654 -1.298418,-0.84903 -1.799348,-0.49193 -5.623847,2.4793 -8.325857,2.71788 -4.346318,1.09498 -8.809433,2.49273 -12.944789,3.94626 5.121508,1.59751 10.675,2.26499 16.021369,1.98133 z m 2.168671,0.0221 c -0.531858,-0.0439 -0.02259,0.24377 0,0 z m 39.202924,-0.34331 c -0.436751,0.12712 0.168602,0.21079 0,0 z m -57.506565,-0.74508 c -0.550564,-0.58396 -0.184364,-0.22082 0,0 z m 67.438589,0.0315 c -0.427377,-0.1095 -0.428198,0.19075 0,0 z M 67.35501,115.54155 c 0.163615,-0.3303 -0.627781,0.23326 0,0 z m 114.41898,-0.83727 c -0.15616,-0.45001 -0.15619,0.44999 0,0 z M 66.348935,114.51007 c -0.165932,-0.23965 -0.248886,0.23197 0,0 z M 63.606029,111.314 c 2.411886,-2.78586 -1.197916,0.74792 0,0 z m -19.952507,-0.40373 c 0.460053,-0.58831 -0.852454,0.20289 0,0 z m 19.717537,-0.89938 c -0.03519,-0.33416 -0.317589,0.30859 0,0 z M 47.75833,109.58291 c 3.464186,-0.73334 -8.995068,0.15367 -1.597828,0.0848 l 1.597828,-0.0849 z m 59.47166,-2.71174 c -0.1653,-0.23211 -0.1653,0.23211 0,0 z m -73.972082,-0.23645 c -0.380624,-0.49922 -1.968417,0.4337 0,0 z m 74.572242,-0.13983 c -0.12849,-0.31538 -0.37681,0.39248 0,0 z m -83.592261,-0.40056 c -0.317935,-0.24455 -0.453292,0.23962 0,0 z m -3.9186,-1.53749 c -1.450183,-0.93484 -0.635416,0.0293 0,0 z M 111.4374,103.8293 c -0.0974,-0.1386 -0.16656,0.25184 0,0 z m -93.074342,-0.23576 c -0.545439,-0.59416 -3.10273,-1.52576 -4.564445,-2.46991 0.360733,1.33363 3.331103,2.04969 4.564445,2.46991 z m -4.930083,-2.62321 c -0.288025,-0.77889 -0.690108,0.43104 0,0 z m 101.209335,-0.40714 c -0.31553,-0.22807 -0.0998,0.15885 0,0 z M 12.811909,100.46226 c -0.165961,-0.23966 -0.248831,0.23198 0,0 z M 115.28659,99.682148 c -0.35416,-0.171662 -0.3775,1.110212 0,0 z M 11.549549,99.814897 c -0.322934,-0.235011 -0.171732,0.249683 0,0 z m 33.175998,-0.09539 c 0.969656,-0.269827 -0.08272,-0.370452 -0.387,0.03066 l 0.386997,-0.03065 z m 70.790703,-0.357766 c -0.0782,-0.236727 -0.15975,0.230645 0,0 z m 1.01151,-1.294729 c 0.0567,-0.520949 -0.30858,0.186785 0,0 z M 10.740344,97.979567 c -1.7020289,-4.009154 -3.1231803,-4.078636 0,0 z m 40.473488,-1.336755 c -0.07234,-0.616396 -0.643389,0.254539 0,0 z m 0.342829,-0.258946 c -0.0783,-0.236699 -0.159666,0.230622 0,0 z m 66.037029,-0.11281 c -0.46394,0.143233 0.0406,0.192172 0,0 z m 0.60912,-1.117182 c -0.0782,-0.236727 -0.15975,0.230645 0,0 z M 53.384117,94.078977 c -0.256339,-0.136028 -0.0605,0.145892 0,0 z M 36.333848,93.112605 c -0.550424,-0.329559 0.106543,0.410631 0,0 z m 82.969482,-1.130816 c -0.1653,-0.232244 -0.1653,0.232244 0,0 z M 53.996056,91.23732 c 3.14963,-5.637192 5.678634,-11.821993 6.696172,-18.288043 2.295664,-2.923366 1.695066,-7.826779 5.581477,-9.774896 3.162613,-2.464174 7.05025,-3.288138 10.796969,-4.365595 -1.234395,-2.112851 -1.367932,-6.445297 -4.255316,-7.766629 -2.198548,-1.880709 -0.522101,-0.370907 -2.415058,-1.014056 -2.986108,0.33333 -4.345113,-0.317083 -5.243747,0.367421 -1.404415,0.18424 -2.369137,-0.0763 -4.330124,1.062221 -0.509826,0.931644 -2.656561,1.911194 -3.758775,2.811381 -0.572545,-0.268868 -1.150848,1.717365 -1.626937,1.727645 -0.1532,0.894803 -0.791766,1.344275 -0.761646,2.760599 -0.748742,2.475509 0.07063,5.049791 -0.363651,6.888609 0.28349,0.201509 0.631874,4.444222 0.595894,6.893202 0.426869,5.338364 -0.425903,11.046649 -0.738172,16.138225 0.671226,0.465596 -0.738219,2.263089 -0.177086,2.559916 z M 76.7715,58.217918 c 0.201083,-0.234786 0.122857,0.325978 0,0 z M 61.182835,51.408972 c 0.363389,-0.678371 1.182099,0.08297 0,0 z m 0.569814,-0.34061 c 0.159666,-0.230622 0.0783,0.236699 0,0 z m 57.311191,40.093909 c -0.4027,-0.362155 0.0269,0.549745 0,0 z m -0.34314,-0.02206 c -0.15969,-0.230621 -0.0783,0.236773 0,0 z m 0.5454,-0.654091 c 0.18935,-1.82503 -0.48477,1.196044 0,0 z m -0.048,-1.429613 c -0.12463,0.02814 0.0928,0.283787 0,0 z m 0.40553,-0.554306 c 0.18323,-1.303017 -0.70402,0.966399 0,0 z m 0.44172,-0.198255 c -0.0547,-0.265546 -0.38271,0.249922 0,0 z m -0.52867,-0.64197 c -0.28242,0.151842 0.18619,0.187698 0,0 z M 15.530839,87.324586 c -0.12289,-0.325968 -0.201051,0.234759 0,0 z m 41.229587,-0.344753 c 0.778194,-2.490659 -0.955528,1.804777 0,0 z m 63.125534,-0.08448 c -0.60897,-1.039805 -0.06,0.634872 0,0 z m -30.97638,-0.09248 c -0.248862,-0.232106 -0.165938,0.239788 0,0 z m 84.70191,-0.880022 c -0.56828,-0.511945 0.52073,0.957552 0,0 z m -53.59812,-0.0032 c -0.31197,-0.619472 -0.2108,0.852788 3e-5,4e-6 z m -30.74774,0.272025 c -0.151084,-0.222366 -0.186464,0.12337 0,0 z M 13.782956,85.76327 c -0.139606,-0.272979 -0.261541,0.379153 0,0 z m 43.521636,-0.125652 c -0.0459,-0.450589 -0.147726,0.450801 0,0 z M 173.26475,85.017255 c -0.49733,-1.294267 0.11863,0.776008 5e-5,-3e-6 z M 91.710777,84.4845 c -0.05467,-0.265513 -0.38265,0.249916 0,0 z m 0.363961,-0.24401 c 0.04868,-0.481545 -0.444901,0.314131 0,0 z m 80.766592,-0.107994 c -0.7764,-1.695342 -0.0355,0.92594 0,0 z m -52.25549,-0.971563 c -0.4773,-0.147435 -0.0244,0.390272 0,0 z M 93.62638,82.627374 c -0.153644,-0.339655 -0.05602,0.341927 0,0 z m 0.393791,-0.2082 c -0.505936,-0.294878 -0.154076,0.40867 0,0 z m 25.995259,-0.02041 c -0.45789,-0.479171 -0.13982,0.291311 0,0 z m 51.78915,-0.06733 c -0.29249,-0.724416 -0.29731,0.08369 0,0 z m -0.34276,-0.618396 c -0.72589,-0.471364 0.46043,0.683004 0,0 z m -50.99323,0.07969 c -0.47949,-0.233286 -0.11672,0.150191 0,0 z m 50.62388,-0.575308 c -1.06461,-1.605654 -0.17042,0.333347 0,0 z M 120.3186,80.964457 c -0.12463,0.02814 0.0928,0.283787 0,0 z m -61.090672,0.01214 c -0.165407,-0.232252 -0.165407,0.232252 0,0 z m 5.413338,-0.534073 c 1.928877,-1.76437 2.687211,-4.754842 2.05283,-6.433659 -0.475029,-0.884619 -0.321734,-0.728142 -1.93948,-1.091554 -1.733204,0.320332 -2.677069,7.683567 -0.113317,7.525215 z m 55.532194,-0.103587 c -0.4044,0.232243 0.15332,0.211057 0,0 z m -0.42934,-0.478969 c -0.12443,-0.492912 -0.39788,0.514254 0,0 z m 0.46552,0.08085 c -0.0783,-0.236773 -0.15969,0.230621 0,0 z m 0,-0.323695 c -0.15969,-0.230621 -0.0783,0.236773 0,0 z m -0.0902,-0.422404 c -0.10367,-0.460218 -0.14184,0.474312 0,0 z m -0.42768,-0.0593 c -0.15095,-0.222347 -0.18638,0.123359 0,0 z m 0.3304,-0.314309 c -0.33448,0.04838 0.15778,0.22681 0,0 z m -23.081764,0.01353 c -0.284119,-0.536185 -0.175332,0.323882 0,0 z m -36.41774,-1.742231 c -0.578008,-0.191431 -0.08538,0.215942 0,0 z m 36.978516,-0.270826 c -0.454641,0.251769 0.243949,0.27588 0,0 z M 119.2386,76.574517 c -0.1653,-0.232244 -0.1653,0.232244 0,0 z m 0.50438,-0.249555 c -0.23585,-0.258753 -0.89875,0.291894 0,0 z M 97.693232,75.459971 c -0.25273,-0.104564 0.218342,0.297918 0,0 z m -36.458475,0.01403 c 0.565754,-0.391894 -0.55187,-0.02018 0,0 z M 118.62723,74.93432 c 0.0434,-0.655825 -0.45175,0.830304 0,0 z m 46.05504,0.05259 c -0.30464,-0.296818 0.12131,0.329624 0,0 z m -0.38712,0.0095 c 0.0219,-0.245343 -0.40687,0.0053 0,0 z M 61.331862,74.114533 c -0.322992,-0.235002 -0.17165,0.249676 0,0 z m 56.773848,-0.453155 c -0.20176,-0.399274 -0.20176,0.399274 0,0 z m -0.27367,-0.586907 c -0.25032,-0.313018 0.0541,0.430661 0,0 z m 0.43551,-0.594323 c -0.44255,-1.069697 -0.46622,0.47751 0,0 z M 65.442625,72.273365 c -0.315443,-0.228037 -0.09996,0.158955 0,0 z m 52.418705,-0.359871 c -0.0293,-0.400853 -0.17876,0.172962 0,0 z m -0.37604,-0.932151 c 0.3131,-1.631814 -0.65911,0.548444 0,0 z M 9.5103515,70.35982 c -0.07829,-0.236698 -0.1596595,0.230622 0,0 z M 116.30793,69.997026 c -0.25638,-0.136025 -0.0604,0.14593 0,0 z M 54.437432,68.870882 c -0.159666,-0.230622 -0.0783,0.236699 0,0 z m 64.736428,-0.453155 c -0.25267,-0.236503 -0.25267,0.236503 0,0 z m 1.09807,-0.455786 c 0.67241,-0.586949 -1.25128,0.499314 0,0 z m -97.275457,-0.03616 c -0.267407,-0.219176 0.07902,0.404669 0,0 z m 91.775307,0.04261 c -0.28517,-0.429767 -0.25588,0.252538 0,0 z m 38.10123,-0.268978 c 0.12647,-0.406967 -0.45868,0.01542 0,0 z M 63.694741,67.194661 c -0.482058,-0.487406 -0.200546,0.311816 0,0 z m 60.064649,-0.257855 c 0.0891,-0.287522 -0.4775,0.18854 0,0 z m -10.22477,-0.180377 c -0.26022,-0.400795 -0.75271,-0.317648 0,0 z m 37.23062,-0.08431 c -0.40826,-0.786582 -0.47962,0.453933 0,0 z m -22.69272,-0.639475 c -0.12291,-0.29701 -0.7235,0.304049 0,0 z M 22.910792,65.860637 c -0.03519,-0.334161 -0.317589,0.308588 0,0 z m 124.302958,-0.28572 c -0.58163,-0.182868 0.0201,0.533833 0,0 z M 22.428755,65.498947 c 0.123875,-0.41227 -0.771029,0.236164 0,0 z m 75.601883,-0.226623 c -0.533201,-1.006214 -0.282464,0.378147 0,0 z m 14.216422,-0.09142 c -0.1653,-0.232244 -0.1653,0.232244 0,0 z M 17.926087,65.044506 c -0.343353,-0.116154 -0.02021,0.276803 0,0 z m 93.970223,0.0069 c -0.0536,-0.905733 -0.79782,0.08062 0,0 z m 31.19025,-0.02834 c -0.8918,-0.370573 -0.17798,0.296967 0,0 z m -31.74581,-0.234232 c -0.39756,-0.344996 -0.34596,0.535043 0,0 z m -13.834749,-0.0368 c -0.614985,-1.229761 -0.694064,0.187443 0,0 z m 1.155423,-0.0869 c 0.362987,-0.462532 -0.703045,0.485696 0,0 z m 42.587556,0.06258 c -0.15954,-0.230621 -0.0781,0.236688 0,0 z m -30.33783,-0.09673 c -0.19526,-0.275947 -0.0521,0.333647 0,0 z m 28.87784,-0.02721 c -0.14036,-0.364824 -0.59344,0.309324 0,0 z m -39.94577,-0.52342 c 1.11868,-0.662286 -1.090004,0.393862 0,0 z M 96.51611,63.79007 c -2.142187,-2.392785 -0.64951,-0.09425 0,0 z m 4.26266,-0.135213 c 0.75111,-0.606587 -1.017882,0.225104 0,0 z m 0.6851,-0.27917 c -0.0682,-0.254166 -0.60646,0.150521 0,0 z m 0.74905,-0.280315 c 0.50829,-0.44654 -1.42361,0.4217 0,0 z M 67.967346,62.7171 c -0.09393,-0.244832 -0.292149,0.254192 0,0 z m 27.149875,-0.280703 c -1.189436,-0.709637 0.487944,0.857612 0,0 z m -26.648136,-0.02298 c -0.0869,-0.283797 -0.520776,0.278479 0,0 z m 0.420755,-0.1063 c 0.47054,-0.41385 -0.873303,0.0092 0,0 z M 17.796614,62.130366 c -0.309922,-0.234762 -0.185159,0.425005 0,0 z m -0.388923,-0.13406 c -0.584113,-0.895518 -0.605586,0.652141 0,0 z M 94.294505,61.66018 c -1.069749,-1.34 -0.356448,0.763335 0,0 z M 71.706198,61.280535 c -0.742264,-0.406214 -0.0099,0.32872 0,0 z m 20.731517,-0.591262 c -0.290663,-0.566138 -1.826845,-0.441865 0,0 z M 74.095989,60.476985 c -0.215295,-0.130453 -0.07993,0.358361 0,0 z m 0.280263,-0.08275 c -0.122858,-0.325979 -0.201082,0.234783 0,0 z m 16.877363,-0.222279 c -0.379142,-0.504949 -0.538239,0.574703 0,0 z M 75.800453,59.899439 c -0.306759,-0.409585 -0.221826,0.686529 0,0 z m -0.388418,0.03399 c -0.09393,-0.244832 -0.292149,0.254192 0,0 z m 1.294728,-2.739551 c -0.223602,-1.032162 -0.257239,0.814209 0,0 z M 55.003876,57.0628 c -0.114955,-0.457503 -0.26088,0.473805 0,0 z m 21.476666,-0.427684 c 0.161903,-0.634297 -0.900498,-0.110223 0,0 z m 0.392335,-0.284705 c -0.06817,-1.253677 -2.108296,-5.040658 -0.70804,-1.704735 -1.243025,-0.932816 0.404912,2.277964 0.70804,1.704735 z m -0.554532,-0.297343 c -0.159666,-0.230622 -0.0783,0.236699 0,0 z m -20.54946,-0.567482 c -0.526071,0.100333 0.03443,0.220593 0,0 z m 0.543551,-0.75678 c 0.305957,-0.437811 -0.741216,0.171069 0,0 z m 1.102872,-0.75423 c 0.360875,-1.451634 -0.741459,0.04316 0,0 z m 1.024993,-0.786095 c 1.233656,-0.918933 3.16988,-2.410699 0.865364,-1.338206 0.570257,-0.683095 -2.94354,2.681166 -0.865364,1.338206 z m 17.619098,-0.886306 c -0.122857,-0.325978 -0.201083,0.234786 0,0 z m -1.209827,-0.572246 c -1.418791,-2.170947 -1.096256,0.07141 0.04238,0.324314 l 0.05299,-0.05938 -0.09536,-0.264908 z m -15.63648,0.06267 c -0.287813,-0.142919 -0.0523,0.326137 0,0 z m 16.004734,-0.271084 c -0.159666,-0.230622 -0.0783,0.236699 0,0 z M 74.98438,51.01981 c -0.563322,-1.014897 -0.04214,0.755218 0,0 z m -1.537659,-0.04905 c -0.500562,-1.024215 -1.173221,0.213363 0,0 z M 63.347806,50.615207 c -0.06799,-0.350017 -0.695929,0.128136 0,0 z m 9.215826,-0.02855 c -0.151084,-0.222366 -0.186464,0.12337 0,0 z m 0.06474,-0.230398 c -0.165938,-0.239788 -0.248862,0.232106 0,0 z m 1.066533,-0.06211 c -2.281617,-1.802891 -0.504738,0.05592 0,0 z m 0.551878,-0.0026 c -0.217309,-0.454837 -0.503117,-0.117767 0,0 z M 67.06104,49.910057 c -0.400622,-0.425941 -0.165599,0.283172 0,0 z m 0.442441,-0.06367 c -0.02498,-0.310186 -0.655804,0.240379 0,0 z m 0.722814,-0.137463 c -0.104374,-0.272968 -0.389577,0.221705 0,0 z m 1.359465,0 c -0.450333,-0.172207 -0.02956,0.21204 0,0 z m 0.987231,-0.04287 c -0.356492,-0.105066 -0.0647,0.113296 0,0 z M 13.084846,116.39744 c -0.03687,-0.75734 0.360701,0.33255 0,0 z m 2.071668,-3.70999 c 0.326459,-0.35803 0.266353,0.25998 0,0 z m 0.536166,-0.18421 c 0.165413,-0.23212 0.165413,0.23212 0,0 z M 179.97906,98.454034 c 0.0987,-0.361562 0.0949,0.454197 0,0 z M 20.358773,70.416352 c -0.26362,-0.600669 0.585943,0.356883 0,0 z" />
        <path
           style="fill:#b3b3b3;stroke:none;stroke-width:0.382494;stroke-dashoffset:0.5"
           d="m 289.7563,653.94786 c -2.79346,-0.99817 -7.38504,-3.98413 -7.80355,-5.07472 -0.19832,-0.51683 0.42937,-1.60273 1.76231,-3.0488 2.63554,-2.85922 3.5112,-4.98253 3.5112,-8.51396 0,-7.20095 -6.26728,-11.66541 -12.84803,-9.1522 -2.0167,0.77019 -2.22736,1.01877 -2.48384,2.931 -0.33911,2.52822 -1.51956,4.21105 -4.36671,6.22511 -1.97819,1.39936 -2.4822,1.51802 -6.44755,1.51802 -3.90994,0 -4.38979,-0.10877 -5.26999,-1.19457 -0.54157,-0.66807 -0.96838,-1.97464 -0.96838,-2.96441 0,-1.43644 0.41918,-2.16461 2.22522,-3.86551 2.68429,-2.52801 3.34087,-3.73286 3.34087,-6.13062 0,-5.01573 -5.87528,-10.36405 -11.38518,-10.36405 -2.24699,0 -6.23663,1.59697 -6.52803,2.61303 -0.10312,0.35959 -0.45148,1.62532 -0.77412,2.81272 -0.66936,2.46342 -3.00753,5.36372 -5.26543,6.53133 -1.9258,0.99586 -5.50033,0.95722 -7.07803,-0.0765 -1.46149,-0.9576 -2.36573,-2.82877 -2.36573,-4.89545 0,-1.2853 0.99769,-2.58747 5.89406,-7.69281 15.28405,-15.93635 40.20491,-47.22938 52.95323,-66.49318 10.24698,-15.48403 21.60796,-35.28169 21.60796,-37.65404 0,-2.99132 -2.45826,-3.77859 -6.06043,-1.9409 -3.56292,1.81767 -15.04681,12.03162 -40.9983,36.46455 -23.74396,22.35457 -35.01284,32.01454 -47.58687,40.79267 -3.12219,2.17964 -6.72843,5.07625 -8.01387,6.43689 -4.43162,4.69089 -11.39555,8.15475 -14.0047,6.96594 -0.67961,-0.30965 -1.23566,-0.92075 -1.23566,-1.35799 0,-1.23635 1.44346,-3.80747 3.58437,-6.3845 3.21127,-3.86546 3.66399,-8.53452 1.02986,-10.6211 -2.63539,-2.08757 -9.40684,-0.18869 -15.16285,4.25205 -2.22393,1.71574 -3.73794,3.48142 -5.44139,6.34587 -0.28393,0.47744 -3.75346,-1.50482 -4.24657,-2.42621 -0.8133,-1.51965 -0.0944,-3.32357 3.19675,-8.02146 4.58373,-6.54297 5.28274,-8.70151 3.59718,-11.10799 -0.89961,-1.28438 -4.25847,-3.14186 -5.68139,-3.14186 -0.57979,0 -1.69452,1.08382 -2.86971,2.79015 -2.31808,3.36574 -6.83623,6.87398 -10.72809,8.33011 -4.28936,1.60486 -5.48526,0.50554 -2.99778,-2.75572 1.79068,-2.3477 18.37857,-17.68362 33.44258,-30.91851 7.23591,-6.3573 17.71301,-16.12243 23.28244,-21.7003 9.90756,-9.92257 10.32772,-10.43048 19.4563,-23.51944 15.82094,-22.68479 21.59647,-32.85429 25.88158,-45.57205 1.81727,-5.39347 2.43726,-6.62404 4.20922,-8.35474 3.30441,-3.22743 4.3015,-3.40643 21.03492,-3.77633 14.80951,-0.32737 14.95516,-0.34114 18.46928,-1.7472 3.22524,-1.29047 3.74573,-1.36474 5.81909,-0.83039 1.25237,0.32276 4.44022,2.03566 7.08411,3.80644 2.6439,1.77079 5.76606,3.47454 6.93816,3.78613 1.17209,0.31158 3.32411,1.11926 4.78226,1.79483 1.49089,0.69074 2.88351,1.04727 3.18201,0.81465 0.29195,-0.22751 1.63793,-0.55811 2.99107,-0.73466 3.91244,-0.51048 12.81561,-3.69907 17.89079,-6.40743 2.56564,-1.36915 9.05519,-5.19629 14.42123,-8.50475 5.36603,-3.30848 10.89493,-6.66589 12.28645,-7.46093 2.71927,-1.55365 22.56505,-14.94978 36.17956,-24.42163 8.59539,-5.97995 16.08586,-12.5344 21.6453,-18.94047 3.05462,-3.51979 9.4915,-12.62561 12.37682,-17.50866 3.76366,-6.36952 8.21021,-21.03677 9.99124,-32.95674 1.49085,-9.97789 1.6423,-12.93687 1.04902,-20.49491 -1.42835,-18.19619 -5.85535,-36.03594 -10.44475,-42.0898 -0.67161,-0.88592 -1.22111,-1.8252 -1.22111,-2.08729 0,-0.26208 -0.70023,-0.61656 -1.55607,-0.78773 l -1.55607,-0.31121 1.01679,-1.42796 c 2.47209,-3.47171 7.15543,-6.84917 7.15543,-5.16023 0,0.27831 0.25206,0.50601 0.56015,0.50601 0.30807,0 0.42336,-0.35644 0.25618,-0.7921 -0.23301,-0.60722 -0.0695,-0.7177 0.70035,-0.47335 0.55237,0.17532 1.29097,0.13969 1.64134,-0.0792 0.35037,-0.21887 0.86474,-0.43369 1.14305,-0.47738 2.25521,-0.35407 7.89308,-2.40519 8.22082,-2.99083 0.28266,-0.50508 1.72828,-0.82455 4.67298,-1.03267 2.34504,-0.16575 4.63973,-0.5026 5.09932,-0.74856 0.45958,-0.24596 2.40558,-0.69423 4.32444,-0.99614 4.59355,-0.72275 5.08279,-0.82956 7.97524,-1.74102 1.3543,-0.42676 2.64786,-0.66129 2.87458,-0.52117 0.22672,0.14012 0.55524,0.0233 0.73004,-0.2595 0.17481,-0.28285 1.49984,-0.51673 2.94451,-0.51974 1.44468,-0.003 3.6644,-0.32047 4.93272,-0.70547 1.26832,-0.38499 4.34232,-0.85828 6.83111,-1.05176 2.48878,-0.19347 6.37209,-0.66228 8.62957,-1.04178 4.87911,-0.82024 18.16441,-1.45684 19.04501,-0.9126 0.34005,0.21016 1.34237,0.31973 2.22737,0.24349 0.88499,-0.0762 2.30887,0.22324 3.16417,0.66553 0.8553,0.44229 3.43618,1.02908 5.73531,1.30398 15.47185,1.84989 15.5605,1.87059 27.396,6.39692 15.39338,5.88699 25.54997,11.26153 33.71011,17.83833 2.08728,1.68228 4.9535,3.63031 6.36936,4.32896 1.41588,0.69866 5.67585,3.77315 9.46662,6.83222 3.79077,3.05906 8.09722,6.34359 9.56989,7.29894 1.47266,0.95536 5.79298,4.88647 9.60071,8.73581 6.10572,6.17244 7.28851,7.65598 10.01774,12.56488 7.41415,13.33538 12.4646,24.63669 25.27606,56.55955 l 8.57456,21.36565 0.88708,11.13218 c 0.48789,6.12269 0.90039,16.2555 0.91663,22.51735 0.042,16.08915 -0.76022,19.96984 -7.5296,36.43256 -2.75729,6.70552 -6.32257,17.32954 -13.41492,39.97462 -3.56007,11.36693 -7.33334,21.93382 -9.8095,27.47123 -1.91223,4.27627 -18.55214,87.85198 -18.55214,93.18004 0,4.52075 -2.57724,8.03242 -7.58704,10.33788 -3.82502,1.76024 -9.04848,1.84292 -11.71389,0.18541 -2.45043,-1.52382 -3.6624,-4.12824 -3.32286,-7.14058 0.45824,-4.06547 -2.10026,-7.14617 -5.93483,-7.14617 -5.3461,0 -11.96185,7.59163 -12.11375,13.90064 -0.0702,2.91675 -0.87399,3.73676 -5.01917,5.12062 -5.12599,1.71131 -6.32383,0.22488 -6.95104,-8.62572 -0.48878,-6.89703 -1.25589,-9.31693 -3.30033,-10.41108 -1.33308,-0.71344 -1.96211,-0.7346 -9.18258,-0.30887 -8.5953,0.50679 -9.48101,1.90486 -7.99702,12.62293 1.3528,9.77049 0.58851,11.1628 -6.62027,12.06018 -4.94657,0.61577 -6.94785,0.272 -8.28066,-1.42239 -2.18042,-2.77195 -1.10711,-7.49671 4.75056,-20.91228 4.61777,-10.57589 4.43065,-10.07008 6.83274,-18.46928 5.40896,-18.9131 8.61025,-36.91716 10.15238,-57.097 0.67869,-8.88112 0.68223,-32.96381 0.006,-41.57453 -0.55095,-7.01662 -1.52671,-16.09906 -1.7549,-16.33484 -0.0759,-0.0784 -5.34898,2.28033 -11.71793,5.24168 -24.22346,11.26308 -33.9788,15.10123 -44.21743,17.39696 -1.53068,0.34321 -5.54418,1.50705 -8.91889,2.58629 -10.52878,3.36714 -21.37684,5.93424 -46.23597,10.94133 -13.21946,2.66264 -25.74315,5.19395 -27.83043,5.62512 -3.00239,0.62022 -6.38446,0.7441 -16.19225,0.59311 -23.54091,-0.36242 -32.45973,-0.21392 -34.91454,0.58132 l -2.27704,0.73766 -0.10477,4.27896 c -0.0685,2.7971 -0.5546,5.85611 -1.40369,8.83304 -1.7369,6.08959 -7.78613,18.27711 -12.93449,26.0594 -2.3014,3.4788 -8.04934,12.47309 -12.77322,19.98731 -15.54945,24.73435 -25.08126,38.4255 -33.60657,48.27128 -6.72961,7.77194 -17.92083,18.81331 -19.30412,19.04561 -0.73722,0.12381 -2.36507,-0.14103 -3.61744,-0.58854 z"
           id="path925"
           transform="scale(0.26458333)" />
        <path
           style="fill:#b3b3b3;stroke:none;stroke-width:0.382494;stroke-dashoffset:0.5"
           d="m 321.08271,442.32329 c -3.35331,-1.09966 -6.74834,-3.33624 -9.05891,-5.96784 -4.67604,-5.32571 -5.62373,-12.29647 -3.29205,-24.21466 1.38889,-7.09919 2.00051,-9.02338 5.70985,-17.96327 1.097,-2.64389 2.37232,-6.51485 2.83405,-8.60214 1.01359,-4.582 2.7978,-9.61415 3.40883,-9.61415 0.24437,0 0.44431,-0.34423 0.44431,-0.76496 0,-0.42073 1.82378,-4.40717 4.05285,-8.85875 5.39911,-10.78234 6.57123,-14.3565 6.58079,-20.06696 0.0193,-11.49955 4.56321,-19.67999 14.79002,-26.62644 3.78507,-2.57096 7.7303,-6.30744 15.09168,-14.29319 2.23731,-2.42708 5.01574,-6.8482 5.03457,-8.01115 0.005,-0.31283 0.66131,-1.53078 1.45832,-2.70656 1.80117,-2.65714 2.78264,-7.45924 2.76908,-13.54846 -0.012,-5.39128 -0.80155,-7.59012 -2.7254,-7.59012 -1.1488,0 -1.2362,0.154 -1.0052,1.77103 0.46068,3.22476 0.19708,10.33026 -0.48807,13.15621 -2.53995,10.47612 -11.64392,22.4006 -23.04129,30.17974 -6.1345,4.18702 -8.91351,6.71989 -11.30929,10.30759 -3.08524,4.62018 -4.33342,8.89524 -4.28245,14.66752 l 0.0425,4.80708 -5.57391,13.15325 c -7.42583,17.52338 -11.44281,27.87964 -15.33471,39.53473 -3.90792,11.70306 -4.09258,12.71296 -3.05597,16.71336 1.2178,4.69964 1.07464,9.74406 -0.33595,11.83723 -2.70805,4.01848 -6.79575,4.88378 -19.10007,4.04317 -11.76388,-0.80369 -15.87212,-0.86432 -22.55092,-0.33279 l -5.59965,0.44564 -1.88981,-1.65927 c -2.32775,-2.04379 -3.08268,-3.47033 -5.12858,-9.69112 l -1.60923,-4.89303 1.92744,-3.03151 c 3.24727,-5.10734 9.64613,-16.51861 15.30042,-27.28565 3.95883,-7.53855 5.38209,-10.73292 5.38209,-12.07965 0,-2.40429 0.56811,-1.92494 4.30306,3.63077 2.42254,3.60351 3.09046,4.2764 4.2448,4.2764 1.62036,0 2.58432,-0.8275 2.58432,-2.21848 0,-2.96578 -5.65879,-10.49633 -10.27806,-13.67775 -2.79334,-1.92385 -3.15857,-2.02385 -13.37462,-3.66223 -13.4539,-2.15764 -17.35406,-2.47762 -20.99235,-1.72227 -3.82105,0.79329 -4.93756,2.15326 -4.96053,6.04224 -0.0227,3.84445 -2.31081,9.69552 -7.14638,18.27454 -2.1177,3.75711 -4.61709,8.30852 -5.55421,10.11425 -1.49592,2.8825 -2.10523,3.51615 -4.9929,5.19243 -6.61627,3.8407 -17.02766,7.15662 -26.81841,8.5414 -6.31691,0.89344 -25.13351,0.89116 -33.90253,-0.004 -6.60655,-0.6745 -6.97249,-0.77472 -11.13217,-3.04884 -11.48308,-6.27788 -15.24412,-7.18149 -31.8785,-7.65898 C 96.6358,398.81592 94.936919,398.53966 85.582135,395.14463 80.8942,393.44322 71.678487,388.89527 62.160193,383.58586 56.890282,380.64624 56.607077,380.3964 51.96652,374.59318 39.709604,359.26536 32.323327,344.94661 29.120299,330.30436 c -1.325485,-6.05929 -1.827787,-18.60045 -1.019495,-25.45407 0.79064,-6.70395 2.316186,-13.91364 4.395249,-20.77182 2.528867,-8.34195 3.07847,-11.14114 4.263801,-21.716 1.248836,-11.1414 1.984997,-14.99397 3.772587,-19.74316 2.734042,-7.26368 5.01996,-9.12172 12.124035,-9.85467 5.931348,-0.61196 8.738502,-0.32263 10.201091,1.0514 2.012319,1.89048 2.406323,4.06163 2.03015,11.18714 -0.358927,6.79886 0.06282,9.86956 1.521843,11.08044 0.854337,0.70904 1.011789,0.56634 7.808042,-7.0765 2.542315,-2.859 3.856059,-3.20525 6.709088,-1.76823 2.359307,1.18834 4.908448,3.77605 4.908448,4.98271 0,1.95617 -6.234558,6.58818 -14.671257,10.90012 -11.861108,6.06214 -14.633623,9.36804 -15.701384,18.72205 -0.301801,2.64389 -1.69793,9.57142 -3.10251,15.3945 -2.824351,11.70914 -3.58086,17.61747 -2.886099,22.54039 0.891823,6.31928 3.135308,9.69407 10.731677,16.14328 6.188073,5.25359 9.215756,7.16527 10.853551,6.85296 0.898326,-0.17131 3.187925,0.4574 6.679897,1.83424 l 5.313082,2.0949 11.132173,0.45401 c 18.855812,0.769 34.117842,2.27916 38.957602,3.8548 3.73887,1.21723 7.66013,5.37049 10.60324,11.23057 l 2.3512,4.68151 3.89844,1.79518 c 2.14415,0.98736 5.60622,2.57437 7.6935,3.5267 2.49726,1.13939 4.51172,2.50316 5.89073,3.98799 1.46446,1.57683 2.4997,2.25647 3.4371,2.25647 0.73779,0 4.12111,-0.89557 7.51848,-1.99015 3.39738,-1.09459 6.74631,-2.07568 7.44207,-2.1802 l 1.26502,-0.19003 -1.39152,-0.68408 c -0.76534,-0.37624 -1.39152,-0.98444 -1.39152,-1.35157 0,-0.82653 3.17004,-2.47376 7.7746,-4.03988 4.27323,-1.45341 12.64363,-6.93049 15.43096,-10.09708 2.10102,-2.38688 3.32024,-5.09165 3.00248,-6.66084 -0.0991,-0.48928 1.03358,-2.71123 2.51702,-4.93767 6.31326,-9.47528 12.62303,-24.8165 16.33729,-39.72161 0.8669,-3.47881 1.65582,-6.40507 1.75315,-6.5028 0.0973,-0.0977 0.86292,1.18116 1.70131,2.842 0.83839,1.66084 2.26038,3.63904 3.15997,4.396 1.43426,1.20685 1.92036,1.3373 3.94837,1.05954 1.27201,-0.17422 3.22356,-0.30167 4.33678,-0.28323 3.37897,0.056 6.19343,-0.99615 8.40438,-3.1418 5.19205,-5.03872 8.47859,-18.18616 6.33039,-25.32407 -1.5362,-5.10442 -4.17515,-6.92958 -11.76677,-8.13818 -7.93425,-1.26314 -8.49388,-2.17771 -5.30596,-8.67126 1.14673,-2.33579 2.08495,-4.4881 2.08495,-4.78292 0,-0.74636 0.87882,-0.67287 1.15358,0.0965 0.12424,0.34788 0.42749,0.44311 0.67388,0.21163 0.25437,-0.23898 0.0905,-0.6823 -0.37926,-1.02578 -0.75306,-0.55065 -0.70279,-0.87591 0.56069,-3.62718 4.11669,-8.96429 11.14875,-14.72119 24.05052,-19.68934 3.33965,-1.28602 7.09032,-2.84381 8.33483,-3.46175 1.2445,-0.61794 3.06613,-1.15262 4.04806,-1.18817 0.98193,-0.0356 3.78427,-0.789 6.22744,-1.67431 17.51921,-6.34835 37.85403,-6.00333 59.82088,1.01498 6.21491,1.98564 6.80517,2.29264 10.69065,5.56052 2.26191,1.90237 6.34711,5.86183 9.07822,8.7988 2.73112,2.93697 5.12819,5.33995 5.32682,5.33995 0.19863,0 2.83068,-1.63108 5.84901,-3.62461 8.034,-5.30626 11.42489,-7.00156 14.00433,-7.00156 1.19726,0 3.50698,-0.24589 5.1327,-0.54642 3.20371,-0.59224 9.93666,-0.12699 8.10918,0.56034 -0.92191,0.34674 -0.87685,0.43502 0.506,0.99147 0.83492,0.33596 2.60312,0.69 3.92936,0.78675 1.32623,0.0967 3.26171,0.61608 4.30107,1.15407 1.03935,0.53799 2.51591,1.22882 3.28125,1.53517 0.76534,0.30635 1.39152,0.76394 1.39152,1.01686 0,0.25293 1.65085,1.78162 3.66856,3.3971 5.51747,4.41759 14.16621,13.41405 17.07164,17.75803 11.07254,16.55483 15.8037,42.18659 12.36844,67.0078 -3.22061,23.27023 -14.12412,45.06258 -28.95334,57.86773 -3.58876,3.09893 -7.05485,5.55172 -29.05545,20.56121 -24.17416,16.49237 -39.33483,24.69909 -56.0087,30.31845 -9.10323,3.06794 -10.61786,3.29021 -14.2667,2.09364 z M 290.84152,313.23441 c 7.57992,-2.34259 15.55886,-10.00125 18.17544,-17.44588 2.17448,-6.1868 0.78123,-13.66381 -3.30809,-17.75313 -3.16686,-3.16685 -6.82485,-4.38545 -13.42253,-4.47148 -4.85017,-0.0632 -5.56039,0.0522 -8.15152,1.32467 -13.76486,6.75989 -16.36206,29.41575 -4.31692,37.65733 2.97434,2.03511 6.04566,2.22694 11.02362,0.68849 z m -250.800092,-55.173 c 0.172002,-0.27831 -0.156115,-0.50601 -0.729148,-0.50601 -0.573034,0 -1.041879,0.2277 -1.041879,0.50601 0,0.2783 0.328116,0.506 0.729148,0.506 0.401032,0 0.869878,-0.2277 1.041879,-0.506 z m 2.700519,-12.84838 c 0.186887,-0.97043 -0.816514,-1.9554 -1.537841,-1.5096 -0.222016,0.13722 -0.403666,0.822 -0.403666,1.52174 0,0.9361 0.232437,1.2275 0.879703,1.10284 0.483837,-0.0932 0.961648,-0.59492 1.061804,-1.11498 z m 364.914183,-3.84988 c 0,-0.27831 -0.2277,-0.50601 -0.50601,-0.50601 -0.2783,0 -0.50601,0.2277 -0.50601,0.50601 0,0.2783 0.22771,0.506 0.50601,0.506 0.27831,0 0.50601,-0.2277 0.50601,-0.506 z M 59.016723,234.84406 c 0,-0.51321 -2.101228,-1.1625 -2.493288,-0.77044 -0.327228,0.32722 1.014246,1.19931 1.860778,1.20968 0.34788,0.004 0.63251,-0.19339 0.63251,-0.43924 z m 218.848397,-4.61309 c -0.17201,-0.2783 -0.527,-0.506 -0.78888,-0.506 -0.26188,0 -0.47614,0.2277 -0.47614,0.506 0,0.27831 0.35499,0.50601 0.78887,0.50601 0.43388,0 0.64815,-0.2277 0.47615,-0.50601 z"
           id="path927"
           transform="scale(0.26458333)" />
        <path
           style="fill:#b3b3b3;stroke:none;stroke-width:0.382494;stroke-dashoffset:0.5"
           d="m 203.74924,344.08274 c -6.7e-4,-0.27831 0.43311,-1.89114 0.96395,-3.58408 0.68709,-2.19125 0.89114,-3.94068 0.70823,-6.07209 -0.14131,-1.64672 0.31812,-9.82513 1.02094,-18.17426 0.70283,-8.34913 1.42717,-18.59579 1.60964,-22.77036 0.35793,-8.1885 -0.50119,-32.83892 -1.33147,-38.20359 -0.27997,-1.80898 -0.62912,-8.6858 -0.77589,-15.28184 -0.38725,-17.40408 0.78701,-23.28092 6.19858,-31.02224 1.29535,-1.85302 2.72278,-3.50906 3.17206,-3.68008 1.89429,-0.7211 11.10752,-6.97483 13.10206,-8.89339 1.68294,-1.61882 2.48985,-2.04847 3.62384,-1.92952 1.09467,0.11482 1.53917,-0.10014 1.78072,-0.86118 0.42259,-1.33147 2.62289,-2.01183 8.15825,-2.5226 2.49334,-0.23007 5.06117,-0.70079 5.70628,-1.04604 0.85541,-0.45781 4.14009,-0.5892 12.13375,-0.48539 l 10.96083,0.14234 3.52359,2.556 c 1.93798,1.4058 4.42376,3.45939 5.52395,4.56353 2.16024,2.16797 5.23661,8.2598 6.65223,13.17271 0.48115,1.66983 1.63624,5.07284 2.56687,7.56226 0.93063,2.48942 1.64156,4.56761 1.57985,4.61821 -0.0617,0.0506 -3.12705,0.92499 -6.81187,1.94308 -15.37052,4.2468 -23.10078,7.45253 -31.76087,13.17117 -9.62937,6.35871 -11.32999,8.82092 -16.20007,23.45489 -1.62498,4.88286 -3.74069,10.139 -4.78647,11.89118 -1.35763,2.27469 -2.11557,4.39547 -2.74986,7.6943 -3.35883,17.46868 -9.06988,33.81082 -18.23859,52.18957 -5.29262,10.60911 -6.32827,12.5015 -6.33053,11.56742 z"
           id="path929"
           transform="scale(0.26458333)" />
        <path
           style="fill:#b3b3b3;stroke:none;stroke-width:0.382494;stroke-dashoffset:0.5"
           d="m 464.90495,603.96396 c 0.11338,-0.25152 1.83405,-3.75902 3.82371,-7.79444 7.15707,-14.51593 16.82412,-39.44915 19.66347,-50.71593 2.00264,-7.94666 7.16669,-24.63687 7.89975,-25.53198 0.84156,-1.02761 10.74648,-4.9523 24.71001,-9.79101 20.26805,-7.02339 27.97988,-10.32163 33.15152,-14.17841 1.11762,-0.83348 2.86777,-1.65103 3.88922,-1.81679 1.58549,-0.25729 2.04707,-0.0965 3.1551,1.09908 1.92141,2.07324 2.3854,4.6075 2.44417,13.34961 0.0733,10.90699 -0.9622,17.03037 -4.27668,25.28967 -1.4086,3.51004 -5.73802,15.94545 -9.62094,27.63423 -8.2953,24.97139 -11.77707,34.51509 -13.1265,35.98041 -1.45729,1.58244 -5.858,3.64924 -9.18941,4.31582 -5.63074,1.12666 -10.98652,-1.20546 -12.9221,-5.62679 -0.42833,-0.97841 -0.90675,-3.81798 -1.06315,-6.31015 l -0.28435,-4.53122 -2.18987,-1.66737 c -2.95365,-2.24893 -5.53346,-2.3042 -7.33999,-0.15726 -1.14144,1.35653 -3.37334,6.39215 -3.37334,7.61094 0,0.26454 -0.68887,2.63149 -1.53083,5.25989 -1.82714,5.70396 -3.55096,7.66996 -5.98205,6.82248 -0.78656,-0.2742 -2.19322,-1.13561 -3.1259,-1.91425 -1.63035,-1.36107 -1.67003,-1.47791 -1.02815,-3.02755 0.88947,-2.14735 0.80651,-6.67823 -0.15636,-8.54021 -1.11804,-2.16206 -4.02728,-4.54238 -6.43243,-5.26299 -1.70859,-0.5119 -2.44772,-0.49338 -4.13712,0.10368 -4.3263,1.52899 -5.49548,6.05209 -3.23423,12.51199 0.71021,2.02892 1.16443,4.01953 1.00937,4.4236 -0.15505,0.40405 -1.45368,1.0918 -2.88584,1.52832 -3.20402,0.97658 -8.13013,1.56456 -7.84708,0.93663 z"
           id="path931"
           transform="scale(0.26458333)" />
        <path
           style="fill:#ffffff;stroke:none;stroke-width:0.382494;stroke-dashoffset:0.5"
           d="m 247.25164,634.25427 c -0.41745,-0.16058 -2.17861,-1.18544 -3.91367,-2.27747 l -3.15467,-1.98551 0.8089,-1.60414 c 2.47387,-4.90604 7.55741,-7.31932 10.73286,-5.09514 2.62369,1.8377 2.29287,5.23916 -0.90187,9.27283 -1.61292,2.03649 -2.08668,2.26059 -3.57155,1.68943 z"
           id="path933"
           transform="scale(0.26458333)" />
        <path
           style="fill:#ffffff;stroke:none;stroke-width:0.382494;stroke-dashoffset:0.5"
           d="m 273.4052,645.74991 c -2.20183,-0.66092 -2.87723,-1.4754 -2.8768,-3.46913 5.8e-4,-2.64117 2.61435,-7.93056 4.1178,-8.33301 2.32103,-0.6213 4.84507,-0.34027 6.14787,0.68452 2.01647,1.58615 2.20322,3.62015 0.62801,6.83978 -2.06305,4.2167 -4.27984,5.39959 -8.01688,4.27784 z"
           id="path935"
           transform="scale(0.26458333)" />
        <path
           style="fill:#ffffff;stroke:none;stroke-width:0.382494;stroke-dashoffset:0.5"
           d="m 182.07783,594.04429 c -0.97476,-0.97476 -0.71181,-2.43024 0.89005,-4.92651 4.19845,-6.54273 8.30134,-6.66026 5.82145,-0.16676 -1.66753,4.36638 -4.94851,6.85626 -6.7115,5.09327 z"
           id="path937"
           transform="scale(0.26458333)" />
        <path
           style="fill:#ffffff;stroke:none;stroke-width:0.382494;stroke-dashoffset:0.5"
           d="m 161.9244,584.29162 c -0.37118,-0.96728 3.92966,-8.24699 6.13533,-10.38481 1.06389,-1.03116 2.00424,-1.53908 2.49837,-1.34947 1.05344,0.40424 1.00042,1.2598 -0.29215,4.7145 -1.81239,4.84406 -7.37887,9.52849 -8.34155,7.01978 z"
           id="path939"
           transform="scale(0.26458333)" />
        <path
           style="fill:#ffffff;stroke:none;stroke-width:0.382494;stroke-dashoffset:0.5"
           d="m 136.68893,473.70768 c 16.11562,-8.87529 27.64226,-16.22863 46.27004,-29.51768 18.05733,-12.8821 24.01481,-19.06184 33.28924,-34.53119 3.52878,-5.88586 17.14446,-32.55404 19.78543,-38.75251 0.69923,-1.64112 1.67047,-2.80467 3.16779,-3.79506 2.08772,-1.38089 2.37048,-1.42752 8.52035,-1.40516 5.21928,0.019 7.35999,0.27457 11.92705,1.42406 6.11699,1.5396 7.33712,2.39158 7.33712,5.12335 0,2.53529 -1.24839,5.5339 -4.73288,11.36833 -1.75324,2.93562 -3.82467,6.6702 -4.60317,8.29907 -2.00228,4.18937 -6.37724,9.80876 -13.3549,17.15361 -7.34649,7.73308 -10.71851,11.7426 -13.55008,16.1118 -2.20301,3.3993 -7.4304,8.46473 -15.5213,15.0404 -15.81367,12.85216 -36.19555,23.76577 -57.53537,30.80769 -7.69088,2.53791 -19.93223,5.57418 -24.03537,5.96158 l -3.54205,0.33443 z M 241.05305,368.8455 c -0.11597,-0.34788 -0.6283,-0.63251 -1.13852,-0.63251 -0.51022,0 -1.02256,0.28463 -1.13852,0.63251 -0.13353,0.40059 0.28393,0.63251 1.13852,0.63251 0.85459,0 1.27205,-0.23192 1.13852,-0.63251 z"
           id="path941"
           transform="scale(0.26458333)" />
        <path
           style="fill:#ffffff;stroke:none;stroke-width:0.382494;stroke-dashoffset:0.5"
           d="m 91.401225,440.98906 c -5.829987,-0.26068 -14.770155,-1.20746 -20.999326,-2.22386 -7.096651,-1.15795 -20.880792,-4.42303 -21.259503,-5.0358 -0.485512,-0.78558 32.588434,-11.13895 45.041872,-14.09978 7.684932,-1.82711 9.848842,-2.57565 17.731722,-6.13375 7.7426,-3.49478 12.13554,-5.05526 14.23118,-5.05526 1.07795,0 1.02339,0.13236 -0.72435,1.75734 -2.34993,2.18487 -1.55973,2.25003 3.42299,0.28225 2.08728,-0.82431 4.20904,-1.50658 4.71502,-1.51616 0.86311,-0.0163 0.8564,0.0719 -0.10854,1.42699 l -1.02851,1.44441 3.9036,0.30494 c 3.8333,0.29946 22.28346,3.59919 24.01397,4.2948 1.43207,0.57564 -20.25124,12.60933 -31.24254,17.33882 -15.55309,6.6924 -21.96049,7.91874 -37.697585,7.21506 z"
           id="path943"
           transform="scale(0.26458333)" />
        <path
           style="fill:#ffffff;stroke:none;stroke-width:0.382494;stroke-dashoffset:0.5"
           d="m 286.8151,310.11195 c -0.26083,-0.32773 -0.59061,-3.78372 -0.73283,-7.67998 -0.19693,-5.39496 -0.58259,-8.34648 -1.61744,-12.37836 -0.8594,-3.3483 -1.24627,-5.89443 -1.05254,-6.92711 0.30586,-1.63033 2.77936,-4.2239 4.02838,-4.2239 0.35352,0 1.1821,-0.46777 1.8413,-1.03949 1.43049,-1.24065 2.21517,-1.10394 7.62213,1.32796 2.12231,0.95456 3.99517,1.73556 4.16191,1.73556 0.16675,0 0.16344,-0.74003 -0.007,-1.64452 l -0.31052,-1.64453 1.61193,1.50894 c 2.04562,1.91492 5.10651,7.98632 5.10651,10.12899 0,0.89914 -0.45541,2.21376 -1.01202,2.92137 -0.55661,0.70762 -1.01202,1.65162 -1.01202,2.09779 0,2.9574 -5.8682,10.41269 -10.52136,13.3669 -3.09456,1.96469 -7.44577,3.28001 -8.10608,2.45038 z"
           id="path945"
           transform="scale(0.26458333)" />
        <path
           style="fill:#ffffff;stroke:none;stroke-width:0.382494;stroke-dashoffset:0.5"
           d="m 241.23646,302.49255 c -3.46133,-3.68442 -3.38638,-15.14796 0.14954,-22.87143 1.59211,-3.47763 2.81415,-4.10358 6.16415,-3.15741 1.77277,0.5007 2.76833,1.14881 3.55279,2.31286 3.27273,4.85641 1.29215,14.70673 -4.47655,22.26388 -2.2925,3.00323 -3.60143,3.35587 -5.38993,1.4521 z"
           id="path947"
           transform="scale(0.26458333)" />
        <path
           style="fill:#ffffff;stroke:none;stroke-width:0.382494;stroke-dashoffset:0.5"
           d="m 599.40722,631.56419 c -1.14004,-1.14004 -1.08983,-1.51006 0.77578,-5.71679 1.47804,-3.33279 2.84828,-4.60011 4.52004,-4.18052 1.71155,0.42957 3.87241,3.38814 4.18685,5.73248 0.33295,2.48232 -0.75833,3.51186 -4.72747,4.46 -3.78128,0.90328 -3.54189,0.91813 -4.7552,-0.29517 z"
           id="path949"
           transform="scale(0.26458333)" />
        <path
           style="fill:#ffffff;stroke:none;stroke-width:0.382494;stroke-dashoffset:0.5"
           d="m 566.30022,634.68904 c -0.5199,-3.07725 -0.42152,-8.71727 0.17937,-10.28311 0.78328,-2.04113 2.72814,-3.11822 4.89607,-2.71152 3.71387,0.69673 7.54363,6.39819 6.35902,9.46684 -0.98816,2.55975 -4.72232,4.86362 -8.63397,5.3269 l -2.44756,0.28987 z"
           id="path951"
           transform="scale(0.26458333)" />
        <path
           style="fill:#ffffff;stroke:none;stroke-width:0.382494;stroke-dashoffset:0.5"
           d="m 504.74352,600.60005 c -0.33426,-0.62456 -0.70548,-2.73082 -0.82494,-4.68058 -0.1899,-3.09922 -0.0814,-3.68817 0.86264,-4.68352 3.06289,-3.22928 7.9044,0.66569 6.62724,5.33158 -0.28288,1.03347 -0.96918,2.61907 -1.52511,3.52355 -0.82767,1.34662 -1.32973,1.64453 -2.77144,1.64453 -1.30664,0 -1.91738,-0.29283 -2.36839,-1.13556 z"
           id="path953"
           transform="scale(0.26458333)" />
        <path
           style="fill:#ffffff;stroke:none;stroke-width:0.382494;stroke-dashoffset:0.5"
           d="m 482.03928,602.25392 c 0,-0.31792 -0.20881,-0.44898 -0.46403,-0.29124 -0.75267,0.46517 -2.26721,-4.79283 -2.28538,-7.93405 -0.0297,-5.14231 2.84221,-6.0897 4.10021,-1.35256 1.00323,3.77774 0.58919,9.51052 -0.71829,9.94548 -0.34788,0.11572 -0.63251,-0.0497 -0.63251,-0.36763 z"
           id="path955"
           transform="scale(0.26458333)" />
      </g>
    </g>
  </g>
</svg>
